<?xml version="1.0" standalone="no"?>
<!DOCTYPE svg PUBLIC "-//W3C//DTD SVG 20010904//EN"
 "http://www.w3.org/TR/2001/REC-SVG-20010904/DTD/svg10.dtd">
<svg version="1.0" xmlns="http://www.w3.org/2000/svg"
 width="360.000000pt" height="88.000000pt" viewBox="0 0 360.000000 88.000000"
 preserveAspectRatio="xMidYMid meet">

<g transform="translate(0.000000,88.000000) scale(0.100000,-0.100000)"
fill="#000000" stroke="none">
<path d="M0 833 c1 -41 2 -45 12 -28 13 24 37 48 63 63 17 10 13 11 -27 12
l-48 0 0 -47z"/>
<path d="M3544 859 c14 -11 33 -30 41 -42 14 -21 15 -20 15 21 l0 42 -41 0
-42 0 27 -21z"/>
<path d="M940 749 c-12 -8 -10 -10 12 -6 15 2 33 0 40 -4 10 -7 10 -9 -2 -9
-13 0 -13 -1 0 -10 20 -13 33 -13 25 0 -8 13 -5 12 33 -1 31 -11 35 -26 14
-52 -11 -12 -8 -19 15 -36 24 -19 26 -25 17 -49 -13 -34 -8 -52 16 -52 10 0
32 -11 48 -25 17 -14 33 -25 37 -25 4 0 5 27 3 60 -6 83 -50 147 -127 184 -68
32 -111 40 -131 25z"/>
<path d="M807 689 c-101 -104 -105 -239 -9 -335 80 -81 198 -94 291 -34 40 25
91 83 91 102 0 4 -17 7 -38 6 -67 -1 -83 9 -77 45 6 31 5 33 -64 65 -39 18
-71 37 -71 42 0 6 -10 20 -22 32 -16 16 -23 36 -24 66 -3 71 -17 73 -77 11z
m83 -109 c-1 -13 -17 -27 -32 -27 -17 0 -24 17 -13 28 6 7 45 6 45 -1z m35
-20 c3 -5 -1 -10 -9 -10 -9 0 -16 5 -16 10 0 6 4 10 9 10 6 0 13 -4 16 -10z
m-13 -35 c5 -6 8 -5 8 3 0 6 9 12 20 12 13 0 20 -7 20 -20 0 -11 -5 -20 -10
-20 -6 0 -5 -6 2 -14 7 -8 15 -10 16 -5 7 17 42 10 43 -8 0 -15 2 -15 9 2 7
17 9 16 9 -9 1 -16 9 -35 19 -43 15 -13 14 -14 -15 -10 -18 2 -33 0 -33 -5 0
-4 16 -8 35 -8 41 0 57 -23 33 -46 -13 -13 -18 -13 -29 -2 -8 7 -18 13 -24 13
-25 1 -115 28 -115 35 0 4 -9 6 -20 3 -13 -4 -26 1 -34 12 -12 17 -14 17 -28
-4 -9 -12 -19 -18 -22 -13 -3 6 0 13 6 15 10 4 10 8 -1 15 -9 7 -10 12 -2 16
8 5 8 13 1 27 -8 15 -7 19 4 19 8 0 18 -4 21 -10 13 -21 23 -9 15 19 -7 24 -5
31 8 34 26 7 56 3 64 -8z m82 9 c23 -9 20 -34 -4 -34 -13 0 -20 7 -20 20 0 22
1 23 24 14z m60 -61 c-10 -40 -14 -41 -14 -5 0 18 5 32 10 32 6 0 8 -11 4 -27z
m-94 -152 c0 -5 -9 -11 -20 -14 -11 -3 -20 0 -20 6 0 7 -4 6 -10 -3 -5 -8 -12
-11 -15 -8 -4 4 -4 11 0 17 8 13 65 15 65 2z m44 0 c4 -5 -1 -8 -9 -7 -21 3
-31 16 -12 16 9 0 18 -4 21 -9z"/>
<path d="M310 510 l0 -220 55 0 55 0 0 85 0 85 145 0 145 0 0 50 0 50 -145 0
-145 0 0 35 0 35 150 0 150 0 0 50 0 50 -205 0 -205 0 0 -220z"/>
<path d="M1220 510 l0 -220 50 0 50 0 0 85 0 85 128 0 c86 0 132 -4 140 -12 7
-7 12 -42 12 -85 l0 -73 50 0 50 0 0 83 c0 54 -5 92 -15 111 -12 23 -13 36 -5
59 15 45 12 88 -10 124 -35 57 -58 63 -265 63 l-185 0 0 -220z m367 104 c3 -9
2 -24 -4 -33 -8 -13 -33 -17 -137 -19 l-126 -3 0 36 0 35 130 0 c112 0 132 -2
137 -16z"/>
<path d="M2465 712 c-20 -13 -56 -63 -107 -154 -76 -131 -78 -137 -78 -201 l0
-67 50 0 50 0 0 50 c0 27 8 65 17 85 l17 35 122 0 c118 0 122 -1 138 -25 10
-15 16 -46 16 -85 l0 -60 50 0 50 0 0 73 c0 73 0 73 -77 206 -52 89 -87 138
-105 147 -38 20 -107 17 -143 -4z m118 -119 l19 -33 -61 0 -61 0 17 35 c22 46
58 45 86 -2z"/>
<path d="M2830 680 l0 -50 85 0 85 0 0 -170 0 -170 50 0 50 0 0 170 0 170 85
0 85 0 0 50 0 50 -220 0 -220 0 0 -50z"/>
<path d="M1010 616 c0 -2 7 -7 16 -10 8 -3 12 -2 9 4 -6 10 -25 14 -25 6z"/>
<path d="M300 250 c0 -7 510 -9 1513 -8 907 1 1376 5 1172 9 -570 11 -2685 10
-2685 -1z"/>
<path d="M3220 209 c0 -5 5 -7 10 -4 6 3 10 8 10 11 0 2 -4 4 -10 4 -5 0 -10
-5 -10 -11z"/>
<path d="M326 159 c-8 -42 0 -50 9 -9 4 17 5 34 2 36 -2 3 -7 -10 -11 -27z"/>
<path d="M970 183 c0 -5 11 -8 24 -8 13 0 22 3 19 8 -2 4 -13 7 -24 7 -10 0
-19 -3 -19 -7z"/>
<path d="M1361 174 c0 -11 3 -14 6 -6 3 7 2 16 -1 19 -3 4 -6 -2 -5 -13z"/>
<path d="M1478 183 c8 -3 11 -17 7 -41 l-5 -37 11 35 c6 19 16 38 22 42 7 4
-1 7 -18 7 -16 0 -24 -3 -17 -6z"/>
<path d="M1751 174 c0 -11 3 -14 6 -6 3 7 2 16 -1 19 -3 4 -6 -2 -5 -13z"/>
<path d="M2580 177 c-19 -10 -26 -21 -28 -53 -4 -50 13 -66 65 -62 33 3 38 7
41 31 3 24 0 27 -25 26 -18 -1 -21 -3 -10 -6 25 -7 17 -37 -11 -41 -13 -2 -30
2 -38 8 -17 15 -19 61 -2 78 15 15 54 16 63 2 3 -5 12 -10 18 -10 7 1 1 10
-12 20 -27 23 -28 24 -61 7z"/>
<path d="M650 161 c0 -25 6 -27 13 -6 4 8 2 17 -3 20 -6 4 -10 -3 -10 -14z"/>
<path d="M2383 120 c0 -36 2 -50 4 -32 2 17 2 47 0 65 -2 17 -4 3 -4 -33z"/>
<path d="M2420 120 c0 -33 4 -60 10 -60 6 0 10 21 10 48 l0 47 31 -47 c17 -27
35 -48 40 -48 5 0 8 28 7 63 l-1 62 -6 -50 -6 -50 -33 48 c-18 26 -37 47 -42
47 -6 0 -10 -27 -10 -60z"/>
<path d="M2680 120 l0 -60 53 2 c50 1 50 2 10 5 -38 4 -43 7 -43 28 0 20 6 24
38 28 l37 4 -37 1 c-30 2 -38 6 -38 21 0 15 8 21 38 24 34 3 33 4 -10 5 l-48
2 0 -60z"/>
<path d="M2802 118 l1 -63 6 50 6 50 33 -47 c18 -27 37 -48 42 -48 6 0 10 27
10 60 0 33 -4 60 -10 60 -5 0 -10 -21 -10 -47 l0 -48 -31 48 c-17 26 -35 47
-40 47 -5 0 -8 -28 -7 -62z"/>
<path d="M2933 120 c0 -36 2 -50 4 -32 2 17 2 47 0 65 -2 17 -4 3 -4 -33z"/>
<path d="M2970 120 l0 -60 53 2 c50 1 50 2 10 5 -38 4 -43 7 -43 28 0 20 6 24
38 28 l37 4 -37 1 c-30 2 -38 6 -38 21 0 15 8 21 38 24 34 3 33 4 -10 5 l-48
2 0 -60z"/>
<path d="M3091 118 c1 -35 4 -51 6 -35 6 36 44 38 63 2 7 -14 17 -25 22 -25
13 0 10 12 -8 31 -15 17 -15 19 0 35 10 9 15 23 12 31 -3 8 -6 17 -6 19 0 2
-20 4 -45 4 l-45 0 1 -62z m79 32 c0 -16 -7 -20 -35 -20 -28 0 -35 4 -35 20 0
16 7 20 35 20 28 0 35 -4 35 -20z"/>
<path d="M3223 120 c0 -36 2 -50 4 -32 2 17 2 47 0 65 -2 17 -4 3 -4 -33z"/>
<path d="M3272 120 c-11 -33 -17 -60 -13 -60 5 0 11 9 14 20 7 28 57 28 64 0
3 -11 10 -20 15 -20 5 0 8 4 6 8 -1 4 -12 31 -22 60 -11 29 -25 52 -31 52 -6
0 -21 -27 -33 -60z m41 -8 c-21 -5 -25 2 -17 33 l7 28 12 -29 c10 -24 9 -30
-2 -32z"/>
<path d="M365 160 c-3 -5 -1 -10 4 -10 6 0 11 5 11 10 0 6 -2 10 -4 10 -3 0
-8 -4 -11 -10z"/>
<path d="M426 154 c-9 -24 -7 -31 5 -11 14 23 27 21 32 -5 4 -20 4 -19 6 5 1
20 -4 27 -18 27 -10 0 -22 -7 -25 -16z"/>
<path d="M536 153 c-4 -10 0 -23 11 -32 16 -15 16 -15 4 2 -12 15 -11 17 8 17
12 0 21 6 21 15 0 20 -36 19 -44 -2z"/>
<path d="M600 166 c0 -2 9 -6 20 -9 11 -3 18 -1 14 4 -5 9 -34 13 -34 5z"/>
<path d="M692 163 c9 -2 19 -12 21 -21 3 -12 5 -10 6 6 1 17 -4 22 -21 21 -16
-1 -18 -3 -6 -6z"/>
<path d="M740 157 c0 -9 5 -17 10 -17 6 0 10 -5 10 -11 0 -6 -7 -8 -17 -4 -15
5 -16 4 -5 -6 22 -23 37 5 18 32 -13 19 -16 20 -16 6z"/>
<path d="M833 163 c13 -3 17 -11 14 -24 -3 -10 -1 -17 4 -13 5 3 9 14 9 25 0
13 -6 19 -22 18 -19 -1 -20 -2 -5 -6z"/>
<path d="M877 164 c-11 -11 -8 -42 4 -50 6 -3 16 -1 22 5 9 9 8 11 -5 6 -11
-4 -18 -2 -18 4 0 6 9 11 21 11 12 0 19 5 17 13 -5 14 -31 21 -41 11z m30 -10
c-3 -3 -12 -4 -19 -1 -8 3 -5 6 6 6 11 1 17 -2 13 -5z"/>
<path d="M1055 161 c19 -9 19 -10 -2 -10 -13 -1 -23 -7 -23 -15 0 -21 20 -30
33 -17 9 9 8 11 -5 6 -11 -4 -18 -2 -18 4 0 6 9 11 21 11 26 0 20 24 -7 27
-18 3 -18 2 1 -6z"/>
<path d="M1165 160 c16 -7 17 -9 3 -9 -23 -1 -33 -20 -19 -34 9 -9 11 -8 6 6
-5 12 -2 17 10 17 10 0 13 -5 9 -12 -4 -7 -3 -8 4 -4 7 4 12 16 12 27 0 13 -7
19 -22 18 -22 0 -22 -1 -3 -9z"/>
<path d="M1205 149 c-10 -30 -2 -32 12 -3 6 13 7 24 3 24 -5 0 -12 -9 -15 -21z"/>
<path d="M1241 152 c0 -10 3 -12 6 -4 8 19 21 14 25 -10 4 -27 26 -30 42 -6 7
12 7 21 0 28 -8 8 -10 4 -10 -11 1 -12 -5 -24 -13 -27 -10 -3 -13 2 -9 20 4
19 0 24 -19 26 -16 1 -23 -3 -22 -16z"/>
<path d="M1332 150 c0 -14 2 -19 5 -12 2 6 2 18 0 25 -3 6 -5 1 -5 -13z"/>
<path d="M1376 154 c-10 -25 -7 -29 7 -9 8 10 19 15 25 11 7 -4 12 -2 12 3 0
17 -37 13 -44 -5z"/>
<path d="M1521 151 c-8 -14 -7 -22 7 -32 15 -13 16 -12 3 4 -12 15 -11 17 10
18 22 0 23 1 4 8 l-20 8 20 5 c16 5 16 6 3 7 -10 0 -22 -8 -27 -18z"/>
<path d="M1575 149 c-9 -27 10 -48 28 -30 10 10 8 11 -7 5 -14 -5 -17 -3 -14
12 2 10 11 18 21 18 9 -1 14 2 11 7 -10 16 -33 9 -39 -12z"/>
<path d="M1631 154 c0 -11 3 -14 6 -6 3 7 2 16 -1 19 -3 4 -6 -2 -5 -13z"/>
<path d="M1658 145 c2 -14 6 -25 8 -25 2 0 4 11 4 25 0 14 -4 25 -9 25 -4 0
-6 -11 -3 -25z"/>
<path d="M1703 163 c20 -5 22 -23 5 -43 -11 -12 -10 -12 5 -1 25 20 22 51 -5
50 -17 -1 -19 -2 -5 -6z"/>
<path d="M1766 154 c-9 -24 -7 -31 5 -11 14 23 27 21 32 -5 4 -20 4 -19 6 5 1
20 -4 27 -18 27 -10 0 -22 -7 -25 -16z"/>
<path d="M1843 163 c14 -4 17 -11 13 -26 -3 -12 -6 -26 -6 -31 0 -4 -8 -5 -17
-1 -15 5 -16 4 -5 -6 16 -17 30 -3 38 39 6 29 4 32 -17 31 -19 -1 -20 -2 -6
-6z"/>
<path d="M1906 154 c-10 -25 -7 -29 7 -9 8 10 19 15 25 11 7 -4 12 -2 12 3 0
17 -37 13 -44 -5z"/>
<path d="M392 140 c0 -14 2 -19 5 -12 2 6 2 18 0 25 -3 6 -5 1 -5 -13z"/>
<path d="M488 128 c-2 -21 -3 -38 -1 -38 10 0 19 39 13 55 -6 16 -8 12 -12
-17z"/>
<path d="M961 138 c-1 -21 4 -28 17 -28 11 0 13 3 6 8 -7 4 -14 16 -17 27 -4
15 -5 14 -6 -7z"/>
<path d="M1007 141 c-4 -17 -3 -21 5 -13 5 5 8 16 6 23 -3 8 -7 3 -11 -10z"/>
<path d="M591 138 c-1 -22 18 -33 32 -19 9 9 8 11 -5 6 -11 -4 -18 0 -21 12
-4 15 -5 16 -6 1z"/>
<path d="M671 134 c0 -11 3 -14 6 -6 3 7 2 16 -1 19 -3 4 -6 -2 -5 -13z"/>
<path d="M810 136 c0 -8 4 -17 9 -20 5 -4 7 3 4 14 -6 23 -13 26 -13 6z"/>
<path d="M1108 143 c19 -8 14 -26 -5 -18 -15 5 -16 4 -5 -6 9 -10 15 -10 23
-2 13 13 4 33 -14 32 -9 0 -9 -2 1 -6z"/>
<path d="M1351 134 c0 -11 3 -14 6 -6 3 7 2 16 -1 19 -3 4 -6 -2 -5 -13z"/>
<path d="M1741 134 c0 -11 3 -14 6 -6 3 7 2 16 -1 19 -3 4 -6 -2 -5 -13z"/>
<path d="M1821 134 c0 -11 3 -14 6 -6 3 7 2 16 -1 19 -3 4 -6 -2 -5 -13z"/>
<path d="M1881 134 c0 -11 3 -14 6 -6 3 7 2 16 -1 19 -3 4 -6 -2 -5 -13z"/>
<path d="M1 48 l-1 -48 41 0 41 0 -32 27 c-18 14 -36 36 -40 47 -7 16 -9 9 -9
-26z"/>
<path d="M3562 34 l-33 -34 36 0 c33 0 35 2 35 35 0 19 -1 35 -2 34 -2 0 -18
-16 -36 -35z"/>
</g>
</svg>
